{"title":"The.Truth.About.Emanuel.2013.SWESUB.BrRiP.snuttebullen.mp4","uid":9604999,"size":2424756745,"categoryP":"video","categoryS":"hd___movies","magnet":"?xt=urn:btih:59103d5c1826b7f9dfb4743de5ad76f40ec333a1&amp;dn=The.Truth.About.Emanuel.2013.SWESUB.BrRiP.snuttebullen.mp4&amp;tr=udp%3A%2F%2Ftracker.openbittorrent.com%3A80&amp;tr=udp%3A%2F%2Fopen.demonii.com%3A1337&amp;tr=udp%3A%2F%2Ftracker.coppersurfer.tk%3A6969&amp;tr=udp%3A%2F%2Fexodus.desync.com%3A6969","seeders":1,"leechers":0,"uploader":"Sunblock.","files":-1,"time":1392205859,"description":"The.Truth.About.Emanuel.2013.SWESUB.BrRiP.snuttebullen\n\n\nPlot:\n\nA troubled young woman becomes obsessed with her mysterious new neighbor, who bears a striking resemblance to the girl's dead mother.\n\nDirector: Francesca Gregorini\nWriters: Francesca Gregorini (screenplay), Sarah Thorp\n\nStars: Kaya Scodelario, Jessica Biel, Alfred Molina\n\n\nVideo: MPEG4 Video 1280x544 [video - MPEG-4 Video]\nAudio: AAC 44100Hz stereo 189kbps [sound - MPEG-4 Audio]\n\n\nFormat                                   : MPEG-4\nFormat profile                           : Base Media\nCodec ID                                 : isom\nFile size                                : 2.26 GiB\nDuration                                 : 1h 35mn\nOverall bit rate mode                    : Variable\nOverall bit rate                         : 3 395 Kbps\n\n\nVideo\nID                                       : 1\nFormat                                   : MPEG-4 Visual\nFormat profile                           : Simple@L1\nFormat settings, BVOP                    : No\nFormat settings, QPel                    : No\nFormat settings, GMC                     : No warppoints\nFormat settings, Matrix                  : Default (H.263)\nCodec ID                                 : 20\nDuration                                 : 1h 35mn\nBit rate mode                            : Variable\nBit rate                                 : 3 204 Kbps\nMaximum bit rate                         : 20.1 Mbps\nWidth                                    : 1 280 pixels\nHeight                                   : 544 pixels\nDisplay aspect ratio                     : 2.35:1\nFrame rate mode                          : Constant\nFrame rate                               : 24.000 fps\nColor space                              : YUV\nChroma subsampling                       : 4:2:0\nBit depth                                : 8 bits\nScan type                                : Progressive\nCompression mode                         : Lossy\nBits/(Pixel*Frame)                       : 0.192\nStream size                              : 2.13 GiB (94%)\nWriting library                          : Lavc53.8.0\nEncoded date                             : UTC 2014-02-11 21:03:35\nTagged date                              : UTC 2014-02-11 21:04:46\n\nAudio\nID                                       : 2\nFormat                                   : AAC\nFormat/Info                              : Advanced Audio Codec\nFormat profile                           : LC\nCodec ID                                 : 40\nDuration                                 : 1h 35mn\nBit rate mode                            : Variable\nBit rate                                 : 192 Kbps\nMaximum bit rate                         : 264 Kbps\nChannel(s)                               : 2 channels\nChannel positions                        : Front: L R\nSampling rate                            : 44.1 KHz\nCompression mode                         : Lossy\nStream size                              : 129 MiB (6%)\n\n\n\nSource:\n\nThe.Truth.About.Emanuel.2013.720p.BluRay.x264-SONiDO\n\n\nText: Undertexter\n &lt;a href=&quot;\nhttp://www.imdb.com/title/tt1838520/&quot; rel=&quot;nofollow&quot; target=&quot;_NEW&quot;&gt;\nhttp://www.imdb.com/title/tt1838520/&lt;/a&gt;\n\n","torrent":{"xt":"urn:btih:59103d5c1826b7f9dfb4743de5ad76f40ec333a1","amp;dn":"The.Truth.About.Emanuel.2013.SWESUB.BrRiP.snuttebullen.mp4","amp;tr":["udp%3A%2F%2Ftracker.openbittorrent.com%3A80","udp%3A%2F%2Fopen.demonii.com%3A1337","udp%3A%2F%2Ftracker.coppersurfer.tk%3A6969","udp%3A%2F%2Fexodus.desync.com%3A6969"],"infoHash":"59103d5c1826b7f9dfb4743de5ad76f40ec333a1","infoHashBuffer":{"type":"Buffer","data":[89,16,61,92,24,38,183,249,223,180,116,61,229,173,118,244,14,195,51,161]},"announce":[],"urlList":[]}}